<?xml version="1.0" standalone="no"?>
<!DOCTYPE svg PUBLIC "-//W3C//DTD SVG 20010904//EN"
 "http://www.w3.org/TR/2001/REC-SVG-20010904/DTD/svg10.dtd">
<svg version="1.0" xmlns="http://www.w3.org/2000/svg"
 width="1024.000000pt" height="1024.000000pt" viewBox="0 0 1024.000000 1024.000000"
 preserveAspectRatio="xMidYMid meet">

<g transform="translate(0.000000,1024.000000) scale(0.100000,-0.100000)"
fill="#000000" stroke="none">
<path d="M7443 8076 c-138 -32 -294 -146 -354 -261 -52 -99 -82 -56 322 -462
407 -406 367 -379 466 -322 67 38 156 135 194 211 67 134 85 283 49 422 -64
250 -262 411 -520 422 -60 2 -118 -1 -157 -10z"/>
<path d="M5016 7768 c-2 -7 -9 -32 -15 -55 -20 -73 -74 -118 -163 -137 -29 -7
-38 -24 -15 -30 6 -2 32 -9 57 -16 59 -16 105 -66 126 -136 8 -30 19 -54 24
-54 4 0 16 26 26 58 22 70 65 116 124 132 25 7 51 14 58 16 27 8 9 23 -44 39
-79 23 -117 69 -150 183 -2 6 -8 12 -14 12 -6 0 -12 -6 -14 -12z"/>
<path d="M1960 7749 c0 -16 77 -192 156 -357 l73 -153 73 71 c40 39 101 92
136 117 34 26 62 50 62 54 0 10 -87 61 -300 176 -185 100 -200 107 -200 92z"/>
<path d="M5746 7561 l-49 -50 43 -48 c23 -26 45 -48 50 -48 10 0 100 83 100
93 0 4 -22 28 -48 54 l-48 48 -48 -49z"/>
<path d="M3961 7538 c-26 -79 -50 -112 -100 -137 -37 -20 -120 -46 -133 -43
-5 1 -8 -2 -8 -7 0 -4 27 -14 59 -20 99 -19 156 -73 186 -175 15 -49 30 -56
38 -17 11 53 49 121 82 147 17 13 62 31 98 40 66 17 89 34 44 34 -43 0 -116
31 -148 63 -28 28 -52 72 -86 157 -9 23 -11 20 -32 -42z"/>
<path d="M5756 6418 l-1077 -1081 -142 146 c-78 80 -435 442 -793 804 -359
362 -707 716 -775 786 l-123 128 -18 -59 c-31 -101 -108 -153 -209 -139 l-39
5 -16 -56 c-8 -32 -25 -78 -36 -104 -12 -27 -18 -51 -14 -55 4 -5 80 -82 168
-173 319 -327 2386 -2410 2392 -2410 8 0 2510 2517 2514 2531 2 5 -57 71 -132
147 l-136 137 -618 -621 c-339 -341 -845 -850 -1123 -1131 l-506 -511 -103
103 c-56 56 -101 107 -99 113 2 5 505 512 1117 1128 611 615 1112 1122 1112
1127 0 11 -250 267 -261 267 -4 0 -491 -487 -1083 -1082z"/>
<path d="M5318 7029 c-27 -26 -48 -51 -48 -54 0 -3 20 -25 45 -49 l46 -43 48
46 48 46 -46 52 -46 51 -47 -49z"/>
<path d="M4446 7017 c-8 -41 -58 -90 -109 -107 -35 -11 -43 -30 -11 -30 8 0
32 -9 53 -19 29 -15 43 -32 61 -73 l23 -53 23 50 c29 59 53 82 100 91 19 3 34
10 34 14 0 4 -20 15 -45 24 -46 18 -75 50 -92 100 -13 42 -29 43 -37 3z"/>
<path d="M4832 6534 c-166 -85 -109 -344 75 -344 81 0 139 34 174 102 39 76
17 165 -54 222 -31 25 -49 31 -100 33 -44 3 -72 -1 -95 -13z"/>
<path d="M2633 6079 c-71 -21 -123 -100 -123 -189 1 -77 25 -106 477 -562 241
-244 595 -603 788 -798 192 -195 562 -568 820 -828 l471 -473 944 948 c1395
1399 1593 1600 1609 1630 9 16 15 55 16 89 0 49 -5 68 -27 101 -66 100 -193
121 -274 45 -16 -15 -95 -94 -174 -177 -80 -82 -534 -544 -1010 -1025 -476
-482 -913 -925 -973 -985 l-107 -110 -82 85 c-79 82 -319 325 -1208 1225 -228
231 -545 553 -705 714 -165 167 -304 300 -322 307 -36 16 -73 17 -120 3z"/>
<path d="M2649 5060 c-43 -13 -90 -52 -112 -95 -24 -47 -28 -127 -6 -167 8
-14 444 -460 970 -990 525 -529 972 -982 993 -1005 21 -24 42 -43 47 -43 6 0
66 57 135 127 l125 126 -28 31 c-33 37 -441 452 -994 1011 -218 220 -526 532
-685 694 -164 167 -303 299 -321 307 -35 15 -83 17 -124 4z"/>
<path d="M7365 5056 c-39 -18 22 42 -881 -871 -814 -823 -1137 -1153 -1142
-1164 -1 -3 56 -65 128 -136 l130 -130 997 1004 c549 552 1006 1018 1015 1035
36 65 15 168 -44 223 -52 49 -142 66 -203 39z"/>
<path d="M4936 2626 c-69 -74 -126 -137 -126 -141 0 -9 250 -275 259 -275 3 0
66 63 139 140 l133 139 -132 136 c-72 74 -135 135 -139 135 -4 0 -64 -60 -134
-134z"/>
</g>
</svg>
